<svg viewBox="0 0 600 400" xmlns="http://www.w3.org/2000/svg">
  <!-- Background gradient -->
  <defs>
    <linearGradient id="bgGrad4" x1="0%" y1="0%" x2="100%" y2="100%">
      <stop offset="0%" style="stop-color:#f5e6ff;stop-opacity:1" />
      <stop offset="100%" style="stop-color:#f0e0ff;stop-opacity:1" />
    </linearGradient>
  </defs>
  <rect width="600" height="400" fill="url(#bgGrad4)"/>
  
  <!-- Community circle - multiple people -->
  <circle cx="150" cy="150" r="35" fill="#FF6B6B" opacity="0.7"/>
  <circle cx="250" cy="100" r="35" fill="#4ECDC4" opacity="0.7"/>
  <circle cx="350" cy="120" r="35" fill="#45B7D1" opacity="0.7"/>
  <circle cx="450" cy="150" r="35" fill="#FFA07A" opacity="0.7"/>
  <circle cx="500" cy="250" r="35" fill="#98D8C8" opacity="0.7"/>
  <circle cx="350" cy="300" r="35" fill="#F7DC6F" opacity="0.7"/>
  <circle cx="200" cy="280" r="35" fill="#BB8FCE" opacity="0.7"/>
  <circle cx="100" cy="250" r="35" fill="#85C1E2" opacity="0.7"/>
  
  <!-- Center heart -->
  <path d="M300,200 C300,200 250,160 250,120 C250,100 260,85 280,85 C295,85 310,95 300,105 C290,95 305,85 320,85 C340,85 350,100 350,120 C350,160 300,200 300,200 Z" fill="#FF1744" opacity="0.9"/>
  
  <!-- Text -->
  <text x="300" y="380" font-size="24" font-weight="bold" text-anchor="middle" fill="#333">
    Join Our Community of Heroes
  </text>
</svg>